<?xml version="1.0" encoding="UTF-8"?>
<svg id="Camada_1" data-name="Camada 1" xmlns="http://www.w3.org/2000/svg" viewBox="0 0 32 32">
  <defs>
    <style>
      .cls-1 {
        fill: gold;
      }
    </style>
  </defs>
  <path class="cls-1" d="M30.96,14.65s-.02,0-.03,0v-5.12c0-1.59-1.29-2.88-2.88-2.88H3.93c-.96-1.36-1.92-2.72-2.88-4.07,0,1.36,0,2.72,0,4.07,0,2.67-.02,5.33-.03,8-.56.01-1.02.48-1.02,1.04v3.63c0,.57.45,1.03,1.02,1.04v6.17c0,1.59,1.29,2.88,2.88,2.88h24.15c1.59,0,2.88-1.29,2.88-2.88v-6.17s.02,0,.03,0c.58,0,1.04-.47,1.04-1.04v-3.63c0-.58-.47-1.04-1.04-1.04ZM27.87,24.48c0,1.03-.83,1.86-1.86,1.86H5.94c-1.03,0-1.86-.83-1.86-1.86v-14.74h21.92c1.03,0,1.86.83,1.86,1.86v12.88Z"/>
  <circle class="cls-1" cx="10.11" cy="17.57" r="2.81"/>
  <circle class="cls-1" cx="21.16" cy="17.57" r="2.81"/>
</svg>